<?xml version="1.0" encoding="utf-8"?>
<!-- Generator: Adobe Illustrator 26.0.0, SVG Export Plug-In . SVG Version: 6.00 Build 0)  -->
<svg version="1.1" id="Layer_1" xmlns="http://www.w3.org/2000/svg" xmlns:xlink="http://www.w3.org/1999/xlink" x="0px" y="0px"
	 viewBox="0 0 595.28 841.89" style="enable-background:new 0 0 595.28 841.89;" xml:space="preserve">
<style type="text/css">
	.st0{fill:#F6CC11;}
</style>
<g>
	<g>
		<path class="st0" d="M65.63,441.8h32.92l-0.21-74.88c0.44-1.71,1.58-4.71,4.37-6.41c6.8-4.15,21.04-3.66,22.84,5.8l-0.01,75.55
			h32.92v-76.37c0.38-1.64,1.47-4.9,4.45-6.71c4.05-2.47,11.42-3.42,16.24-0.6c1.39,0.81,2.36,1.56,3.05,2.29
			c1,1.05,2.16,3.27,2.57,5.06c0.03,0.12,0.24,1.36,0.33,2.77c0.1,1.65,0.08,3.5,0.08,3.5l0.03,57.77c0,6.78,6.29,12.28,14.04,12.28
			l26.81-0.02c0,0-4.2-1.8-6.43-8.09c-1.2-3.38-1.4-8.63-1.4-8.63l-0.01-63.3c0,0,0.75-10.52-7-18.61
			c-2.34-2.44-7.32-5.86-12.09-7.25c-2.21-0.64-6.37-1.44-11.46-1.47c-3-0.01-10.63,0.42-19.71,3.43
			c-5.19,1.72-10.13,4.08-13.71,8.11c-1.18,1.32-2.07,2.21-2.74,3.11c-0.82-1.13-2-2.55-3.59-4.05c-2.48-2.33-6.54-4.99-9.26-6.17
			c-3.31-1.45-12.38-2.82-20.95-1.74c-7.16,0.91-13.97,3.54-19.43,8.2l-0.02-8.13c0-0.6-0.71-0.99-1.33-0.73L57,353.2l9.23,3.66
			L65.63,441.8z"/>
		<path class="st0" d="M117.51,565.82c12.22-1.03,20.03-6.23,21.27-7.43c1.42-1.38,2.47-2.69,3.21-3.73
			c0.6,0.83,1.39,1.64,2.45,2.86c3.2,3.71,7.62,5.88,12.25,7.47c8.11,2.78,21.34,0.65,23.38,0.28c6.66-1.2,13.11-5.85,15.23-8.07
			c8.19-8.59,6.28-20.44,6.28-20.44l0.03-52.09c0,0,0.17-4.83,1.25-7.95c1.99-5.79,5.75-7.45,5.75-7.45l-23.95-0.02
			c-6.93-0.01-12.55,5.06-12.55,11.31l-0.03,53.21c0,0,0.02,1.71-0.07,3.23c-0.08,1.31-0.27,2.45-0.3,2.55
			c-0.37,1.65-1.4,3.69-2.29,4.66c-0.62,0.67-1.48,1.36-2.73,2.11c-4.31,2.59-10.89,1.72-14.51-0.56c-2.66-1.67-3.64-4.67-3.97-6.18
			v-70.34h-29.42l0.01,69.59c-1.61,8.72-14.34,9.16-20.41,5.34c-2.5-1.57-3.52-4.33-3.91-5.91l0.19-68.98H65.26l0.44,64.61
			c0,0,0.4,4.39,0.78,6.98c0.62,4.28,1.89,8.9,3.28,10.94c3.4,4.95,6.73,7,10.18,9.15c3.57,2.22,11.15,4.37,19.05,5.1
			C106.58,566.76,114.52,566.08,117.51,565.82z"/>
		<path class="st0" d="M329.4,408.51l-30.5-0.42c0,0,2.06,12.38-16.73,12.81c-10.8,0.25-17.08-3.17-20.71-8.83
			c-2.94-4.58-4.06-9.39-4.66-17.11l68.98-9.47c0,0,4.2-24.53-17.06-39.37c-21.26-14.85-53.16-9.47-68.98,8.18
			c-15.82,17.64-17.8,57.01,4.7,74.66c22.5,17.64,52.42,14.41,66.51,7.53S328.91,415.83,329.4,408.51z M278.3,356.71
			c17.32-0.34,21.13,15.2,21.13,15.2l-40.81,5.91C255.37,367.85,265.11,356.96,278.3,356.71z"/>
		<path class="st0" d="M426.46,363.77c0,0-0.83-8.65-10.41-16.07s-25.6-11.13-47.25-6.89c-21.65,4.24-29.79,14.46-29.56,28.79
			c0.21,12.72,15.61,20.13,33.51,23.31c17.9,3.18,26.02,7.06,26.64,19.96c0.63,12.89-16.03,13.78-23.73,9.36
			c-7.7-4.41-6.45-14.13-6.45-14.13l-28.73,5.65c0,0-2.29,16.07,21.44,24.9c23.73,8.83,43.09,1.77,53.08-3.53
			s17.28-18.72,13.32-32.5c-3.96-13.78-27.06-19.25-38.93-21.02c-11.87-1.77-21.65-6.53-22.07-14.31
			c-0.42-7.77,4.79-13.6,20.19-11.83c15.41,1.77,12.07,17.48,12.07,17.48L426.46,363.77z"/>
		<path class="st0" d="M438.03,369.33c0.21,12.72,15.49,20.13,33.26,23.31c17.77,3.18,25.82,7.06,26.44,19.96
			c0.62,12.89-15.91,13.78-23.55,9.36c-7.64-4.42-6.4-14.13-6.4-14.13l-28.51,5.65c0,0-2.27,16.07,21.28,24.9
			c23.55,8.83,42.76,1.77,52.68-3.53c9.92-5.3,17.14-18.72,13.22-32.5c-3.92-13.78-26.85-19.25-38.63-21.02
			c-11.77-1.77-21.48-6.53-21.9-14.31c-0.41-7.77,4.75-13.6,20.04-11.83c15.29,1.77,11.98,17.48,11.98,17.48l26.65-9.18
			c0,0-0.83-8.65-10.33-16.07c-9.5-7.42-25.41-11.13-46.89-6.89C445.88,344.78,437.8,355,438.03,369.33z"/>
		<path class="st0" d="M237.56,515.95c-9.08,3.89-28.42,12.59-28.87,26.57c-0.45,13.96,7.14,19.33,20.09,23.35
			c12.95,4.03,27.08-1.21,31.25-4.97c4.17-3.76,7.89-5.91,7.89-5.91s1.82,7.74,8.93,10.33c7.74,2.82,18.76,2.31,23.49,0.47
			c0,0-1.72-0.97-3.91-3.39c-2.45-2.7-3.05-9.09-3.1-12.28c-0.3-17.42-0.41-62.52-0.41-62.52s0.3-14.5-16.82-20.94
			c-17.11-6.44-37.8-4.43-48.96,3.62c-3.87,2.79-7.27,5.17-10.42,9.8c-5.94,8.73-3.72,21.21,5.65,28.86l23.66-11.68
			c0,0-8.33-0.94-8.48-7.25c-0.15-6.31,5.65-13.02,16.37-12.75c10.71,0.27,14.58,10.6,14.14,19.6
			C267.61,505.88,246.63,512.05,237.56,515.95z M268.76,516.66l-0.72,26.36c0,0-7.66,10.64-21.77,8.85
			c-8.46-1.07-10.03-8.3-8.96-13.17c1.65-7.45,10.77-12.36,19.28-16.42C263.39,519.03,268.76,516.66,268.76,516.66z"/>
		<path class="st0" d="M331.67,515.68c-9.08,3.89-28.42,12.59-28.87,26.57c-0.45,13.96,7.14,19.33,20.09,23.35
			c12.95,4.03,27.08-1.21,31.25-4.97c4.17-3.76,7.89-5.91,7.89-5.91s1.82,7.74,8.93,10.33c7.74,2.82,18.76,2.31,23.49,0.47
			c0,0-1.72-0.97-3.91-3.39c-2.45-2.7-3.05-9.09-3.1-12.28c-0.3-17.42-0.41-62.52-0.41-62.52s0.3-14.5-16.82-20.94
			c-17.11-6.44-37.8-4.43-48.96,3.62c-3.87,2.79-7.27,5.17-10.42,9.8c-5.94,8.73-3.72,21.21,5.65,28.86l23.66-11.68
			c0,0-8.33-0.94-8.48-7.25c-0.15-6.31,5.65-13.02,16.37-12.75c10.71,0.27,14.58,10.6,14.14,19.6S340.74,511.79,331.67,515.68z
			 M362.87,516.39l-0.72,26.36c0,0-7.66,10.64-21.77,8.85c-8.46-1.07-10.04-8.3-8.96-13.17c1.65-7.45,10.77-12.36,19.28-16.42
			C357.5,518.76,362.87,516.39,362.87,516.39z"/>
		<path class="st0" d="M535.09,563.22c-2.45-2.7-3.05-9.09-3.1-12.28c-0.3-17.42-0.41-62.52-0.41-62.52s0.3-14.5-16.81-20.94
			c-17.11-6.44-37.8-4.43-48.96,3.62c-3.87,2.79-7.27,5.17-10.42,9.8c-5.94,8.73-3.72,21.21,5.66,28.86l23.66-11.68
			c0,0-8.33-0.94-8.48-7.25c-0.15-6.31,5.65-13.02,16.37-12.75c10.71,0.27,14.58,10.6,14.14,19.6
			c-0.45,8.99-21.43,15.17-30.51,19.06c-9.08,3.89-28.42,12.59-28.87,26.57c-0.45,13.96,7.14,19.33,20.09,23.35
			c12.95,4.03,27.08-1.21,31.25-4.97c4.17-3.76,7.89-5.91,7.89-5.91s1.82,7.74,8.93,10.33c7.74,2.82,18.76,2.31,23.49,0.47
			C539,566.61,537.28,565.63,535.09,563.22z M506.7,543.82c0,0-7.67,10.64-21.77,8.85c-8.46-1.07-10.03-8.3-8.96-13.17
			c1.65-7.45,10.77-12.36,19.28-16.42c6.8-3.25,12.17-5.62,12.17-5.62L506.7,543.82z"/>
		<path class="st0" d="M405.28,550.02c0.41,8.43,5.79,15.85,15.71,17.2c9.92,1.35,21.91-3.04,21.91-3.04s0,0-4.55-1.69
			c-4.55-1.69-4.96-11.47-4.96-11.47l-2.25-99.19c-0.1-4.46-6.1-7.13-10.76-4.8l-28.61,14.34l12.54,1.22
			C404.31,462.59,404.86,541.59,405.28,550.02z"/>
	</g>
	<path class="st0" d="M100.04,316.25c12.76,0,23.4,0,34.93,0c0-0.02,0-0.03,0-0.05h39.21v-22.01h-39.22
		c-0.02-26.61-0.05-52.74,0.06-78.84c0.06-14.44,5.76-20.29,21.13-20.32c94.38-0.18,188.76-0.18,283.14,0.02
		c14.55,0.03,20.59,6.01,20.69,19.39c0.22,29.28,0.07,58.55,0.07,87.83c0,4.75,0,9.5,0,14.35c12.6,0,22.9,0,34.89,0
		c0-43.07,0.26-84.49-0.13-125.91c-0.15-16.48-11.87-26.29-30.6-26.6c-16.97-0.28-33.98-0.57-50.93,0.1
		c-10.79,0.43-13.94-3.31-13.43-12.54c0.69-12.58,0.24-25.22,0.12-37.83c-0.23-24.63-9.92-33.46-36.81-33.49
		c-42.95-0.05-85.89-0.07-128.84,0c-26,0.04-36.21,9.09-36.54,32.52c-0.23,16.55-0.05,33.11-0.05,51.16
		c-22.92,0-43.75-0.1-64.59,0.03c-22.21,0.13-33.01,9.78-33.09,29.79c-0.14,33.33-0.03,66.66-0.03,99.99
		C100.04,301.34,100.04,308.83,100.04,316.25z M279.28,112.53c18.98,0,37.96-0.29,56.92,0.09c17.89,0.36,24.57,6.4,24.46,22.34
		c-0.23,33.54,4.76,27.84-30.1,28.43c-10.48,0.18-20.97,0.03-31.46,0.03c-15.98-0.02-31.97-0.35-47.93,0.1
		c-9.79,0.27-14.12-2-14.25-12.01C236.45,114.65,238.32,112.53,279.28,112.53z"/>
	<path class="st0" d="M460.03,588.08c0,0.01,0,0.02,0,0.03h-38.2v22.01l40.73-0.05c-0.31,14.94-0.63,28.42-0.85,43.44
		c-0.38,25.47-12.53,41.68-35.27,52.77c-10.03,4.89-20.64,9.16-31.49,12.27c-53.94,15.46-108.92,17.25-164.23,7.6
		c-28.48-4.97-56.37-12.26-79.21-29.8c-12.47-9.58-18.33-21.03-17.24-36.73c1.65-23.64,0.43-47.44,0.43-71.96
		c-11.7,0-21.98,0-34.66,0c0,25.92-1.54,50.77,0.6,75.35c1.21,13.81,6.01,28.47,13.58,40.49c16.54,26.24,45.6,38.17,76.28,46.41
		c45.62,12.25,92.59,12.96,139.52,10.38c36.86-2.03,73.48-6.77,107.27-21.75c25-11.08,48.82-25.93,53.13-51.54
		c5.47-32.46,4.35-65.81,6.07-98.91C482.02,588.08,471.41,588.08,460.03,588.08z"/>
	<path class="st0" d="M186.24,304.88c0,7.91,7.11,14.32,15.87,14.32c8.77,0,15.87-6.41,15.87-14.32c0-7.91-7.11-14.32-15.87-14.32
		C193.34,290.56,186.24,296.97,186.24,304.88z"/>
	<path class="st0" d="M379.14,598.42c0,7.91,7.11,14.32,15.87,14.32c8.77,0,15.87-6.41,15.87-14.32c0-7.91-7.1-14.32-15.87-14.32
		C386.24,584.1,379.14,590.51,379.14,598.42z"/>
</g>
</svg>
