<?xml version="1.0" encoding="utf-8"?>
<!-- Generator: Adobe Illustrator 26.0.0, SVG Export Plug-In . SVG Version: 6.00 Build 0)  -->
<svg version="1.1" id="Layer_1" xmlns="http://www.w3.org/2000/svg" xmlns:xlink="http://www.w3.org/1999/xlink" x="0px" y="0px"
	 viewBox="0 0 432 432" style="enable-background:new 0 0 432 432;" xml:space="preserve">
<style type="text/css">
	.st0{fill:#DB3941;}
	.st1{fill:#F6CB00;}
</style>
<path class="st0" d="M375.1,428.9H56.3c-29.5,0-53.5-23.9-53.5-53.5V56.7c0-29.5,23.9-53.5,53.5-53.5h318.7
	c29.5,0,53.5,23.9,53.5,53.5v318.7C428.5,405,404.6,428.9,375.1,428.9z"/>
<g>
	<g>
		<path class="st1" d="M107.5,227.1h15.4l-0.1-35c0.2-0.8,0.7-2.2,2-3c3.2-1.9,9.8-1.7,10.7,2.7l0,35.3h15.4v-35.6
			c0.2-0.8,0.7-2.3,2.1-3.1c1.9-1.2,5.3-1.6,7.6-0.3c0.7,0.4,1.1,0.7,1.4,1.1c0.5,0.5,1,1.5,1.2,2.4c0,0.1,0.1,0.6,0.2,1.3
			c0,0.8,0,1.6,0,1.6l0,27c0,3.2,2.9,5.7,6.6,5.7l12.5,0c0,0-2-0.8-3-3.8c-0.6-1.6-0.7-4-0.7-4l0-29.5c0,0,0.4-4.9-3.3-8.7
			c-1.1-1.1-3.4-2.7-5.6-3.4c-1-0.3-3-0.7-5.3-0.7c-1.4,0-5,0.2-9.2,1.6c-2.4,0.8-4.7,1.9-6.4,3.8c-0.5,0.6-1,1-1.3,1.5
			c-0.4-0.5-0.9-1.2-1.7-1.9c-1.2-1.1-3.1-2.3-4.3-2.9c-1.5-0.7-5.8-1.3-9.8-0.8c-3.3,0.4-6.5,1.7-9.1,3.8l0-3.8
			c0-0.3-0.3-0.5-0.6-0.3l-18.6,7.8l4.3,1.7L107.5,227.1z"/>
		<path class="st1" d="M131.8,285c5.7-0.5,9.3-2.9,9.9-3.5c0.7-0.6,1.2-1.3,1.5-1.7c0.3,0.4,0.7,0.8,1.1,1.3
			c1.5,1.7,3.6,2.7,5.7,3.5c3.8,1.3,10,0.3,10.9,0.1c3.1-0.6,6.1-2.7,7.1-3.8c3.8-4,2.9-9.5,2.9-9.5l0-24.3c0,0,0.1-2.3,0.6-3.7
			c0.9-2.7,2.7-3.5,2.7-3.5l-11.2,0c-3.2,0-5.9,2.4-5.9,5.3l0,24.8c0,0,0,0.8,0,1.5c0,0.6-0.1,1.1-0.1,1.2c-0.2,0.8-0.7,1.7-1.1,2.2
			c-0.3,0.3-0.7,0.6-1.3,1c-2,1.2-5.1,0.8-6.8-0.3c-1.2-0.8-1.7-2.2-1.9-2.9v-32.8h-13.7l0,32.5c-0.8,4.1-6.7,4.3-9.5,2.5
			c-1.2-0.7-1.6-2-1.8-2.8l0.1-32.2h-13.7l0.2,30.2c0,0,0.2,2,0.4,3.3c0.3,2,0.9,4.2,1.5,5.1c1.6,2.3,3.1,3.3,4.7,4.3
			c1.7,1,5.2,2,8.9,2.4C126.7,285.4,130.4,285.1,131.8,285z"/>
		<path class="st1" d="M230.7,211.6l-14.2-0.2c0,0,1,5.8-7.8,6c-5,0.1-8-1.5-9.7-4.1c-1.4-2.1-1.9-4.4-2.2-8l32.2-4.4
			c0,0,2-11.4-8-18.4c-9.9-6.9-24.8-4.4-32.2,3.8c-7.4,8.2-8.3,26.6,2.2,34.8c10.5,8.2,24.5,6.7,31,3.5
			C228.6,221.4,230.4,215,230.7,211.6z M206.8,187.4c8.1-0.2,9.9,7.1,9.9,7.1l-19,2.8C196.1,192.6,200.6,187.5,206.8,187.4z"/>
		<path class="st1" d="M276,190.7c0,0-0.4-4-4.9-7.5c-4.5-3.5-12-5.2-22.1-3.2c-10.1,2-13.9,6.7-13.8,13.4
			c0.1,5.9,7.3,9.4,15.6,10.9c8.4,1.5,12.1,3.3,12.4,9.3c0.3,6-7.5,6.4-11.1,4.4c-3.6-2.1-3-6.6-3-6.6l-13.4,2.6
			c0,0-1.1,7.5,10,11.6c11.1,4.1,20.1,0.8,24.8-1.6c4.7-2.5,8.1-8.7,6.2-15.2c-1.8-6.4-12.6-9-18.2-9.8c-5.5-0.8-10.1-3-10.3-6.7
			c-0.2-3.6,2.2-6.3,9.4-5.5c7.2,0.8,5.6,8.2,5.6,8.2L276,190.7z"/>
		<path class="st1" d="M281.4,193.3c0.1,5.9,7.2,9.4,15.5,10.9c8.3,1.5,12.1,3.3,12.3,9.3c0.3,6-7.4,6.4-11,4.4
			c-3.6-2.1-3-6.6-3-6.6l-13.3,2.6c0,0-1.1,7.5,9.9,11.6c11,4.1,20,0.8,24.6-1.6c4.6-2.5,8-8.7,6.2-15.2c-1.8-6.4-12.5-9-18-9.8
			s-10-3-10.2-6.7c-0.2-3.6,2.2-6.3,9.4-5.5c7.1,0.8,5.6,8.2,5.6,8.2l12.4-4.3c0,0-0.4-4-4.8-7.5c-4.4-3.5-11.9-5.2-21.9-3.2
			C285,181.8,281.3,186.6,281.4,193.3z"/>
		<path class="st1" d="M187.8,261.7c-4.2,1.8-13.3,5.9-13.5,12.4c-0.2,6.5,3.3,9,9.4,10.9c6,1.9,12.6-0.6,14.6-2.3
			c1.9-1.8,3.7-2.8,3.7-2.8s0.8,3.6,4.2,4.8c3.6,1.3,8.8,1.1,11,0.2c0,0-0.8-0.5-1.8-1.6c-1.1-1.3-1.4-4.2-1.4-5.7
			c-0.1-8.1-0.2-29.2-0.2-29.2s0.1-6.8-7.8-9.8c-8-3-17.6-2.1-22.9,1.7c-1.8,1.3-3.4,2.4-4.9,4.6c-2.8,4.1-1.7,9.9,2.6,13.5l11-5.5
			c0,0-3.9-0.4-4-3.4c-0.1-2.9,2.6-6.1,7.6-6c5,0.1,6.8,4.9,6.6,9.1C201.8,257,192,259.9,187.8,261.7z M202.4,262l-0.3,12.3
			c0,0-3.6,5-10.2,4.1c-4-0.5-4.7-3.9-4.2-6.1c0.8-3.5,5-5.8,9-7.7C199.8,263.1,202.4,262,202.4,262z"/>
		<path class="st1" d="M231.7,261.6c-4.2,1.8-13.3,5.9-13.5,12.4c-0.2,6.5,3.3,9,9.4,10.9c6,1.9,12.6-0.6,14.6-2.3
			c1.9-1.8,3.7-2.8,3.7-2.8s0.8,3.6,4.2,4.8c3.6,1.3,8.8,1.1,11,0.2c0,0-0.8-0.5-1.8-1.6c-1.1-1.3-1.4-4.2-1.4-5.7
			c-0.1-8.1-0.2-29.2-0.2-29.2s0.1-6.8-7.8-9.8c-8-3-17.6-2.1-22.9,1.7c-1.8,1.3-3.4,2.4-4.9,4.6c-2.8,4.1-1.7,9.9,2.6,13.5l11-5.5
			c0,0-3.9-0.4-4-3.4c-0.1-2.9,2.6-6.1,7.6-6c5,0.1,6.8,4.9,6.6,9.1S236,259.8,231.7,261.6z M246.3,261.9l-0.3,12.3
			c0,0-3.6,5-10.2,4.1c-4-0.5-4.7-3.9-4.2-6.1c0.8-3.5,5-5.8,9-7.7C243.8,263,246.3,261.9,246.3,261.9z"/>
		<path class="st1" d="M326.7,283.8c-1.1-1.3-1.4-4.2-1.4-5.7c-0.1-8.1-0.2-29.2-0.2-29.2s0.1-6.8-7.8-9.8c-8-3-17.6-2.1-22.9,1.7
			c-1.8,1.3-3.4,2.4-4.9,4.6c-2.8,4.1-1.7,9.9,2.6,13.5l11-5.5c0,0-3.9-0.4-4-3.4c-0.1-2.9,2.6-6.1,7.6-6c5,0.1,6.8,4.9,6.6,9.1
			c-0.2,4.2-10,7.1-14.2,8.9c-4.2,1.8-13.3,5.9-13.5,12.4c-0.2,6.5,3.3,9,9.4,10.9c6,1.9,12.6-0.6,14.6-2.3c1.9-1.8,3.7-2.8,3.7-2.8
			s0.8,3.6,4.2,4.8c3.6,1.3,8.8,1.1,11,0.2C328.5,285.4,327.7,284.9,326.7,283.8z M313.4,274.7c0,0-3.6,5-10.2,4.1
			c-4-0.5-4.7-3.9-4.2-6.1c0.8-3.5,5-5.8,9-7.7c3.2-1.5,5.7-2.6,5.7-2.6L313.4,274.7z"/>
		<path class="st1" d="M266.1,277.6c0.2,3.9,2.7,7.4,7.3,8c4.6,0.6,10.2-1.4,10.2-1.4s0,0-2.1-0.8c-2.1-0.8-2.3-5.4-2.3-5.4
			l-1.1-46.3c0-2.1-2.8-3.3-5-2.2l-13.4,6.7l5.9,0.6C265.6,236.8,265.9,273.7,266.1,277.6z"/>
	</g>
	<path class="st1" d="M123.6,168.5c6,0,10.9,0,16.3,0c0,0,0,0,0,0h18.3v-10.3h-18.3c0-12.4,0-24.6,0-36.8c0-6.7,2.7-9.5,9.9-9.5
		c44.1-0.1,88.1-0.1,132.2,0c6.8,0,9.6,2.8,9.7,9.1c0.1,13.7,0,27.3,0,41c0,2.2,0,4.4,0,6.7c5.9,0,10.7,0,16.3,0
		c0-20.1,0.1-39.4-0.1-58.8c-0.1-7.7-5.5-12.3-14.3-12.4c-7.9-0.1-15.9-0.3-23.8,0c-5,0.2-6.5-1.5-6.3-5.9
		c0.3-5.9,0.1-11.8,0.1-17.7c-0.1-11.5-4.6-15.6-17.2-15.6c-20,0-40.1,0-60.1,0c-12.1,0-16.9,4.2-17.1,15.2c-0.1,7.7,0,15.5,0,23.9
		c-10.7,0-20.4,0-30.1,0c-10.4,0.1-15.4,4.6-15.4,13.9c-0.1,15.6,0,31.1,0,46.7C123.6,161.5,123.6,165,123.6,168.5z M207.3,73.4
		c8.9,0,17.7-0.1,26.6,0c8.3,0.2,11.5,3,11.4,10.4c-0.1,15.7,2.2,13-14,13.3c-4.9,0.1-9.8,0-14.7,0c-7.5,0-14.9-0.2-22.4,0
		c-4.6,0.1-6.6-0.9-6.6-5.6C187.3,74.4,188.1,73.4,207.3,73.4z"/>
	<path class="st1" d="M291.6,295.4C291.6,295.4,291.6,295.4,291.6,295.4l-17.8,0v10.3l19,0c-0.1,7-0.3,13.3-0.4,20.3
		c-0.2,11.9-5.8,19.5-16.5,24.6c-4.7,2.3-9.6,4.3-14.7,5.7c-25.2,7.2-50.8,8.1-76.7,3.5c-13.3-2.3-26.3-5.7-37-13.9
		c-5.8-4.5-8.6-9.8-8-17.1c0.8-11,0.2-22.1,0.2-33.6c-5.5,0-10.3,0-16.2,0c0,12.1-0.7,23.7,0.3,35.2c0.6,6.4,2.8,13.3,6.3,18.9
		c7.7,12.2,21.3,17.8,35.6,21.7c21.3,5.7,43.2,6.1,65.1,4.8c17.2-0.9,34.3-3.2,50.1-10.2c11.7-5.2,22.8-12.1,24.8-24.1
		c2.6-15.1,2-30.7,2.8-46.2C301.9,295.4,296.9,295.4,291.6,295.4z"/>
	<path class="st1" d="M163.8,163.2c0,3.7,3.3,6.7,7.4,6.7c4.1,0,7.4-3,7.4-6.7c0-3.7-3.3-6.7-7.4-6.7
		C167.2,156.5,163.8,159.5,163.8,163.2z"/>
	<path class="st1" d="M253.9,300.2c0,3.7,3.3,6.7,7.4,6.7c4.1,0,7.4-3,7.4-6.7c0-3.7-3.3-6.7-7.4-6.7
		C257.2,293.5,253.9,296.5,253.9,300.2z"/>
</g>
</svg>
